<svg display="block" role="presentation" viewBox="0 0 306 96" xmlns="http://www.w3.org/2000/svg"><path d="M 0 0 L 306 0 L 306 96 L 0 96 Z" display="none" fill="transparent" height="96px" id="u_ZdIqvIs" width="306px"/><path d="M 33.041 15.255 C 28.555 15.255 24.234 16.946 20.941 19.992 C 17.637 23.047 15.598 27.228 15.224 31.712 C 14.846 36.198 16.161 40.663 18.909 44.229 C 21.648 47.784 25.625 50.178 30.049 50.934 L 29.32 23.726 L 31.947 23.029 L 34.208 37.331 L 44.168 28.787 L 45.298 31.904 L 35.41 43.9 L 36.504 50.83 C 40.871 49.971 44.76 47.512 47.408 43.934 C 52.908 36.506 51.896 26.121 45.067 19.894 C 41.778 16.9 37.488 15.245 33.04 15.254 Z M 33.038 0 C 24.491 0.006 16.28 3.332 10.139 9.277 C 3.979 15.24 0.356 23.35 0.026 31.917 C -0.311 40.485 2.667 48.854 8.343 55.282 C 14 61.692 21.926 65.654 30.448 66.335 L 30.266 59.148 C 23.742 58.454 17.726 55.309 13.433 50.348 C 9.127 45.373 6.856 38.957 7.073 32.381 C 7.285 25.806 9.97 19.552 14.593 14.871 C 19.201 10.204 25.41 7.463 31.963 7.201 C 38.515 6.945 44.92 9.189 49.879 13.479 C 54.852 17.783 58.017 23.805 58.741 30.342 C 59.469 36.883 57.705 43.457 53.801 48.755 C 49.909 54.038 44.158 57.648 37.708 58.855 L 38.801 65.929 C 46.933 64.455 54.217 59.986 59.215 53.404 C 64.228 46.804 66.605 38.574 65.881 30.318 C 65.163 22.065 61.394 14.377 55.311 8.754 C 49.245 3.149 41.297 0.025 33.038 0 Z M 107.352 54.161 C 106.236 56.105 104.558 57.665 102.537 58.635 C 100.425 59.572 98.134 60.035 95.825 59.991 C 93.235 60.048 90.67 59.482 88.345 58.341 C 86.236 57.283 84.411 55.737 83.02 53.831 C 81.596 51.853 80.523 49.645 79.847 47.303 C 79.126 44.813 78.77 42.232 78.79 39.64 C 78.788 37.133 79.144 34.639 79.847 32.233 C 80.493 29.948 81.57 27.808 83.02 25.928 C 84.418 24.086 86.214 22.584 88.274 21.532 C 90.548 20.395 93.065 19.829 95.607 19.882 C 97.829 19.871 100.025 20.359 102.033 21.312 C 104.022 22.225 105.697 23.705 106.848 25.567 L 107.001 25.567 L 107.001 6.306 L 117.434 6.306 L 117.434 59.036 L 107.512 59.036 L 107.512 54.16 L 107.352 54.16 Z M 106.914 35.277 C 106.655 33.914 106.148 32.611 105.418 31.432 C 104.717 30.337 103.783 29.41 102.682 28.719 C 101.382 27.986 99.904 27.63 98.413 27.692 C 96.9 27.64 95.402 27.995 94.073 28.719 C 92.924 29.391 91.959 30.335 91.263 31.469 C 90.512 32.656 89.992 33.975 89.733 35.355 C 89.407 36.849 89.248 38.374 89.259 39.903 C 89.267 41.396 89.439 42.884 89.77 44.34 C 90.075 45.746 90.63 47.085 91.41 48.292 C 92.151 49.435 93.135 50.399 94.293 51.116 C 95.547 51.865 96.992 52.234 98.452 52.179 C 99.954 52.236 101.443 51.88 102.757 51.151 C 103.901 50.483 104.846 49.521 105.493 48.365 C 106.212 47.143 106.706 45.801 106.952 44.405 C 107.248 42.895 107.394 41.36 107.39 39.821 C 107.363 38.295 107.204 36.775 106.914 35.277 Z M 133.508 49.864 C 137.009 52.652 141.882 52.945 145.693 50.598 C 146.988 49.838 147.971 48.642 148.466 47.223 L 157.66 47.223 C 156.626 51.186 154.239 54.663 150.911 57.051 C 147.612 59.105 143.779 60.138 139.895 60.021 C 137.141 60.065 134.404 59.58 131.833 58.591 C 129.514 57.708 127.429 56.303 125.741 54.484 C 124.031 52.656 122.715 50.497 121.874 48.14 C 120.942 45.531 120.484 42.776 120.522 40.006 C 120.503 37.292 120.972 34.597 121.908 32.049 C 122.782 29.672 124.136 27.5 125.886 25.668 C 127.621 23.851 129.706 22.404 132.015 21.414 C 134.519 20.361 137.214 19.837 139.931 19.876 C 142.861 19.806 145.765 20.447 148.395 21.746 C 150.74 22.938 152.766 24.673 154.306 26.806 C 155.865 28.985 157.004 31.437 157.663 34.034 C 158.368 36.811 158.614 39.685 158.392 42.542 L 130.992 42.542 C 131.102 45.873 131.94 48.366 133.508 49.864 Z M 145.328 29.77 C 144.583 29.036 143.689 28.472 142.706 28.117 C 141.724 27.763 140.677 27.627 139.638 27.717 C 138.205 27.671 136.781 27.959 135.479 28.559 C 134.461 29.072 133.555 29.782 132.815 30.649 C 132.177 31.439 131.706 32.35 131.429 33.327 C 131.182 34.139 131.023 34.974 130.955 35.82 L 147.918 35.82 C 147.624 33.606 146.729 31.516 145.329 29.776 Z M 171.523 20.863 L 171.523 27.938 L 171.676 27.938 C 172.176 26.752 172.84 25.641 173.647 24.638 C 174.481 23.64 175.451 22.763 176.529 22.034 C 177.601 21.324 178.767 20.769 179.994 20.384 C 181.229 19.985 182.521 19.787 183.819 19.798 C 184.587 19.803 185.35 19.926 186.081 20.164 L 186.081 29.917 C 185.503 29.798 184.918 29.712 184.33 29.66 C 183.676 29.589 183.018 29.552 182.36 29.55 C 180.692 29.507 179.035 29.832 177.508 30.503 C 176.242 31.098 175.139 31.992 174.295 33.107 C 173.459 34.273 172.864 35.594 172.543 36.993 C 172.197 38.571 172.026 40.182 172.032 41.798 L 172.032 58.996 L 161.599 58.996 L 161.599 20.856 Z M 198.335 49.864 C 201.837 52.65 206.709 52.943 210.52 50.598 C 211.804 49.816 212.793 48.628 213.329 47.223 L 222.522 47.223 C 221.489 51.186 219.102 54.663 215.774 57.051 C 212.475 59.105 208.642 60.138 204.758 60.021 C 202.004 60.065 199.267 59.58 196.696 58.591 C 194.377 57.708 192.292 56.303 190.604 54.484 C 188.894 52.657 187.578 50.497 186.737 48.14 C 185.805 45.529 185.348 42.772 185.388 40 C 185.369 37.286 185.838 34.591 186.774 32.043 C 187.662 29.673 189.015 27.503 190.752 25.662 C 192.487 23.845 194.572 22.398 196.881 21.408 C 199.373 20.358 202.056 19.834 204.761 19.87 C 207.692 19.8 210.596 20.441 213.225 21.74 C 215.569 22.932 217.595 24.667 219.135 26.8 C 220.695 28.979 221.833 31.43 222.492 34.028 C 223.179 36.808 223.426 39.679 223.222 42.536 L 195.818 42.536 C 195.928 45.873 196.766 48.366 198.335 49.864 Z M 210.154 29.77 C 209.409 29.036 208.514 28.472 207.531 28.117 C 206.549 27.763 205.502 27.626 204.462 27.717 C 203.029 27.671 201.606 27.959 200.304 28.559 C 199.29 29.062 198.395 29.774 197.677 30.649 C 197.038 31.439 196.567 32.35 196.291 33.327 C 196.044 34.139 195.885 34.974 195.816 35.82 L 212.779 35.82 C 212.459 33.607 211.553 31.521 210.155 29.776 Z M 235.836 59.038 L 222.813 20.865 L 233.757 20.865 L 241.747 46.937 L 241.9 46.937 L 249.919 20.865 L 260.28 20.865 L 247.438 59.038 Z M 261.918 31.68 C 262.767 29.301 264.124 27.136 265.896 25.336 C 267.637 23.554 269.739 22.166 272.062 21.265 C 277.293 19.358 283.029 19.358 288.26 21.265 C 290.597 22.156 292.713 23.545 294.461 25.335 C 296.213 27.151 297.568 29.312 298.439 31.68 C 299.407 34.346 299.877 37.167 299.826 40.003 C 299.856 42.826 299.387 45.633 298.439 48.291 C 297.567 50.647 296.212 52.795 294.461 54.596 C 292.705 56.367 290.591 57.743 288.26 58.63 C 283.02 60.488 277.301 60.488 272.062 58.63 C 269.735 57.756 267.629 56.378 265.896 54.596 C 264.153 52.789 262.799 50.643 261.918 48.291 C 260.964 45.633 260.495 42.826 260.532 40.003 C 260.459 37.166 260.93 34.341 261.918 31.68 Z M 271.368 44.444 C 271.638 45.828 272.144 47.155 272.864 48.368 C 273.548 49.52 274.515 50.479 275.673 51.154 C 277.023 51.891 278.549 52.247 280.087 52.182 C 281.635 52.238 283.171 51.883 284.538 51.154 C 285.717 50.482 286.708 49.524 287.42 48.368 C 288.145 47.158 288.652 45.83 288.917 44.444 C 289.21 42.971 289.356 41.473 289.354 39.971 C 289.355 38.457 289.209 36.946 288.917 35.46 C 288.652 34.075 288.145 32.747 287.42 31.537 C 286.698 30.389 285.709 29.433 284.538 28.75 C 283.174 28.009 281.638 27.642 280.087 27.687 C 278.546 27.633 277.02 28 275.673 28.75 C 274.523 29.436 273.558 30.392 272.864 31.537 C 272.123 32.739 271.616 34.07 271.368 35.46 C 271.074 36.945 270.927 38.456 270.93 39.97 C 270.928 41.472 271.075 42.971 271.369 44.444 Z M 303.582 17.71 C 303.582 17.637 303.545 17.491 303.545 17.271 L 303.545 16.977 C 303.568 16.735 303.514 16.491 303.392 16.281 C 303.3 16.106 303.143 15.974 302.954 15.915 C 303.193 15.857 303.394 15.696 303.502 15.475 C 303.601 15.282 303.653 15.069 303.655 14.852 C 303.652 14.69 303.627 14.53 303.582 14.375 C 303.517 14.248 303.444 14.126 303.363 14.009 C 303.251 13.86 303.099 13.746 302.925 13.679 C 302.691 13.595 302.444 13.557 302.196 13.568 L 300.006 13.568 L 300.006 18.151 L 300.924 18.151 L 300.924 16.318 L 301.842 16.318 C 302.037 16.296 302.234 16.351 302.39 16.471 C 302.514 16.64 302.569 16.849 302.543 17.057 L 302.543 17.497 C 302.537 17.633 302.549 17.768 302.58 17.9 C 302.591 17.989 302.616 18.075 302.653 18.157 L 303.71 18.157 L 303.71 18.047 L 303.582 17.711 Z M 302.451 15.475 C 302.298 15.526 302.138 15.551 301.977 15.549 L 300.955 15.549 L 300.955 14.337 L 302.012 14.337 C 302.161 14.337 302.309 14.362 302.45 14.411 C 302.632 14.531 302.73 14.744 302.705 14.961 C 302.756 15.17 302.651 15.387 302.454 15.475 Z M 301.758 19.544 C 301.036 19.544 300.331 19.329 299.732 18.926 C 299.131 18.523 298.663 17.95 298.388 17.281 C 297.824 15.911 298.135 14.337 299.179 13.285 C 300.219 12.236 301.79 11.922 303.154 12.49 C 303.821 12.768 304.391 13.238 304.791 13.84 C 305.192 14.444 305.405 15.153 305.405 15.878 C 305.42 17.363 304.531 18.707 303.159 19.275 C 302.714 19.457 302.238 19.549 301.758 19.544 Z M 301.758 11.66 C 300.921 11.66 300.103 11.91 299.407 12.378 C 298.71 12.846 298.167 13.511 297.848 14.287 C 297.192 15.876 297.554 17.704 298.766 18.923 C 299.973 20.138 301.795 20.502 303.377 19.845 C 304.151 19.522 304.813 18.977 305.277 18.278 C 306.398 16.59 306.177 14.346 304.75 12.908 C 303.958 12.111 302.881 11.663 301.758 11.661 Z" fill="rgb(255, 255, 255)" height="66.335px" id="lC7emLOlu" transform="translate(0.01 0)" width="305.9894723866228px"/><path d="M 4.377 8.434 L 2.082 8.434 L 2.082 13.641 L 0 13.641 L 0 0.807 L 4.413 0.807 C 7.441 0.807 8.938 2.531 8.938 4.621 C 8.901 6.497 7.697 8.434 4.377 8.434 Z M 4.377 6.742 C 6.019 6.742 6.748 5.934 6.748 4.652 C 6.748 3.332 6.018 2.562 4.377 2.562 L 2.082 2.562 L 2.082 6.742 Z M 15.284 13.824 C 13.899 13.869 12.56 13.325 11.598 12.327 C 10.631 11.328 10.129 9.968 10.214 8.58 C 10.214 7.209 10.756 5.893 11.72 4.924 C 12.683 3.955 13.992 3.409 15.358 3.409 C 16.724 3.41 18.033 3.955 18.995 4.924 C 19.96 5.896 20.502 7.21 20.501 8.58 C 20.551 9.984 20.018 11.346 19.029 12.344 C 18.041 13.337 16.684 13.873 15.284 13.824 Z M 15.284 11.991 C 16.166 11.99 17.005 11.614 17.594 10.958 C 18.186 10.301 18.473 9.424 18.385 8.544 C 18.479 7.673 18.199 6.803 17.615 6.15 C 16.726 5.161 15.299 4.859 14.085 5.403 C 13.294 5.761 12.695 6.442 12.443 7.273 C 12.317 7.684 12.28 8.117 12.334 8.544 C 12.33 10.854 13.679 11.991 15.284 11.991 Z M 21.413 3.484 L 23.529 3.484 L 25.645 11.66 L 27.798 3.483 L 29.981 3.483 L 32.024 11.623 L 34.112 3.483 L 36.155 3.483 L 33.017 13.633 L 30.827 13.633 L 28.785 6.116 L 26.742 13.633 L 24.552 13.633 L 21.413 3.483 Z M 42.097 13.824 C 40.747 13.771 39.47 13.196 38.536 12.219 C 37.599 11.239 37.076 9.936 37.076 8.58 C 37.076 7.224 37.6 5.92 38.536 4.942 C 39.47 3.965 40.747 3.39 42.097 3.337 C 43.429 3.276 44.724 3.784 45.659 4.734 C 46.599 5.685 47.094 6.989 47.023 8.324 C 47.018 8.668 46.993 9.011 46.949 9.352 L 39.215 9.352 C 39.242 10.091 39.561 10.788 40.102 11.292 C 40.642 11.794 41.36 12.059 42.097 12.029 C 42.591 12.066 43.085 11.948 43.509 11.692 C 43.934 11.435 44.269 11.054 44.469 10.599 L 46.73 10.599 C 46.425 11.576 45.804 12.425 44.964 13.01 C 44.126 13.594 43.117 13.88 42.097 13.824 Z M 39.215 7.664 L 44.796 7.664 C 44.779 6.944 44.47 6.262 43.939 5.775 C 43.409 5.291 42.703 5.045 41.987 5.096 C 41.287 5.094 40.613 5.357 40.1 5.833 C 39.585 6.311 39.27 6.965 39.217 7.665 L 39.215 7.663 Z M 51.146 13.641 L 49.066 13.641 L 49.066 3.491 L 51.146 3.491 L 51.146 4.958 C 51.447 4.427 51.891 3.99 52.426 3.697 C 52.96 3.404 53.566 3.267 54.174 3.3 L 54.174 5.464 L 53.626 5.464 C 52.096 5.464 51.146 6.124 51.146 8.251 Z M 60.483 13.824 C 59.133 13.771 57.856 13.196 56.922 12.219 C 55.985 11.239 55.462 9.936 55.462 8.58 C 55.462 7.224 55.986 5.92 56.922 4.942 C 57.856 3.965 59.133 3.39 60.483 3.337 C 61.815 3.276 63.11 3.784 64.045 4.734 C 64.984 5.685 65.479 6.989 65.408 8.324 C 65.404 8.668 65.379 9.011 65.335 9.352 L 57.602 9.352 C 57.629 10.091 57.948 10.788 58.489 11.292 C 59.029 11.794 59.747 12.059 60.484 12.029 C 60.978 12.066 61.472 11.948 61.896 11.692 C 62.321 11.435 62.656 11.054 62.856 10.599 L 65.117 10.599 C 64.809 11.574 64.186 12.42 63.347 13.005 C 62.51 13.588 61.503 13.876 60.484 13.824 Z M 57.602 7.664 L 63.183 7.664 C 63.166 6.944 62.857 6.262 62.326 5.775 C 61.796 5.291 61.09 5.045 60.374 5.096 C 59.673 5.088 58.995 5.349 58.481 5.826 C 57.965 6.305 57.651 6.963 57.604 7.665 L 57.602 7.663 Z M 71.538 3.337 C 72.875 3.348 74.145 3.92 75.04 4.913 L 75.04 0 L 77.164 0 L 77.164 13.641 L 75.048 13.641 L 75.048 12.103 C 74.224 13.202 72.918 13.833 71.545 13.795 C 70.201 13.767 68.928 13.185 68.027 12.187 C 67.122 11.187 66.666 9.86 66.766 8.515 C 66.669 7.182 67.127 5.867 68.032 4.883 C 68.935 3.903 70.205 3.343 71.538 3.337 Z M 71.975 5.133 C 71.111 5.138 70.29 5.506 69.711 6.147 C 69.128 6.788 68.84 7.644 68.915 8.507 C 68.84 9.381 69.125 10.248 69.703 10.908 C 70.28 11.565 71.101 11.956 71.975 11.991 C 72.819 11.901 73.599 11.501 74.164 10.868 C 75.338 9.555 75.338 7.569 74.164 6.256 C 73.599 5.623 72.819 5.223 71.975 5.133 Z M 90.289 3.337 C 91.624 3.344 92.895 3.91 93.793 4.898 C 94.694 5.889 95.142 7.209 95.032 8.544 C 95.144 9.886 94.698 11.215 93.799 12.217 C 92.902 13.216 91.631 13.798 90.289 13.824 C 89.612 13.846 88.939 13.709 88.325 13.422 C 87.71 13.135 87.17 12.707 86.75 12.174 L 86.75 13.641 L 84.671 13.641 L 84.671 0 L 86.75 0 L 86.75 4.987 C 87.171 4.453 87.71 4.026 88.325 3.739 C 88.939 3.453 89.612 3.315 90.289 3.337 Z M 89.815 5.133 C 88.973 5.223 88.193 5.623 87.627 6.256 C 87.06 6.89 86.746 7.711 86.747 8.562 C 86.747 9.414 87.06 10.235 87.627 10.868 C 88.192 11.5 88.972 11.901 89.815 11.991 C 90.695 11.964 91.524 11.575 92.108 10.917 C 92.695 10.258 92.987 9.387 92.916 8.507 C 92.976 7.64 92.678 6.787 92.09 6.147 C 91.505 5.508 90.681 5.141 89.815 5.132 Z M 104.043 3.484 L 106.195 3.484 L 99.994 18.444 L 97.841 18.444 L 99.884 13.494 L 95.906 3.484 L 98.241 3.484 L 101.087 11.22 L 104.043 3.483 Z" fill="rgb(255, 255, 255)" height="18.443994079589842px" id="H9XedNIsL" transform="translate(30.498 77.556)" width="106.19499822998044px"/><g d="M 0 8.289 C 0 8.289 6.53 13.79 14.301 14.376 C 22.072 14.962 25.646 11.553 35.606 5.61 C 41.772 1.944 55.123 6.784 55.123 6.784 C 55.123 6.784 48.483 0 40.385 0 C 33.855 0 28.604 4.034 25.646 6.344 C 22.543 9.082 18.609 10.696 14.477 10.927 C 8.755 11.405 0 8.289 0 8.289 Z M 0 6.456 C 0 6.456 6.53 0.955 14.301 0.369 C 22.072 -0.217 25.646 3.192 35.606 9.135 C 41.772 12.801 55.123 7.962 55.123 7.962 C 55.123 7.962 48.483 14.745 40.385 14.745 C 33.855 14.745 28.604 10.711 25.646 8.401 C 22.543 5.664 18.609 4.05 14.477 3.819 C 8.755 3.345 0 6.456 0 6.456 Z" fill="transparent" height="14.745003070159939px" id="BUkq9gNLF" transform="translate(148.038 77.848)" width="55.12299999999999px"><path d="M 0 8.289 C 0 8.289 6.53 13.79 14.301 14.376 C 22.072 14.962 25.646 11.553 35.606 5.61 C 41.772 1.944 55.123 6.784 55.123 6.784 C 55.123 6.784 48.483 0 40.385 0 C 33.855 0 28.604 4.034 25.646 6.344 C 22.543 9.082 18.609 10.696 14.477 10.927 C 8.755 11.405 0 8.289 0 8.289 Z" fill="rgb(122, 126, 129)" height="14.441055621429442px" id="ZVnQ8yooM" width="55.12299999999999px"/><path d="M 0 6.152 C 0 6.152 6.53 0.651 14.301 0.065 C 22.072 -0.521 25.646 2.888 35.606 8.831 C 41.772 12.497 55.123 7.658 55.123 7.658 C 55.123 7.658 48.483 14.441 40.385 14.441 C 33.855 14.441 28.604 10.407 25.646 8.097 C 22.543 5.36 18.609 3.746 14.477 3.515 C 8.755 3.041 0 6.152 0 6.152 Z" fill="rgb(255, 255, 255)" height="14.44105562142947px" id="axDIvarkv" transform="translate(0 0.304)" width="55.12299999999999px"/></g><path d="M 0 1.872 L 0 0.002 L 1.605 0.002 L 1.605 1.872 Z M 0 13.204 L 0 3.632 L 1.605 3.632 L 1.605 13.202 Z M 4.196 13.204 L 4.196 0.002 L 5.948 0.002 L 5.948 11.662 L 12.404 11.662 L 12.404 13.239 L 4.196 13.239 Z M 14.265 1.872 L 14.265 0.002 L 15.87 0.002 L 15.87 1.872 Z M 14.265 13.204 L 14.265 3.632 L 15.87 3.632 L 15.87 13.202 Z M 18.35 13.202 L 18.35 3.632 L 19.809 3.632 L 19.809 4.988 C 20.13 4.481 20.58 4.067 21.112 3.79 C 21.643 3.513 22.239 3.383 22.837 3.412 C 23.373 3.41 23.905 3.509 24.405 3.705 C 24.829 3.882 25.205 4.159 25.499 4.513 C 25.756 4.873 25.93 5.287 26.01 5.723 C 26.084 6.245 26.108 6.773 26.084 7.3 L 26.084 13.167 L 24.479 13.167 L 24.479 7.337 C 24.495 6.841 24.433 6.346 24.297 5.869 C 24.173 5.544 23.941 5.273 23.64 5.1 C 23.296 4.904 22.906 4.803 22.51 4.807 C 21.853 4.796 21.215 5.031 20.723 5.467 C 20.128 6.153 19.851 7.058 19.958 7.96 L 19.958 13.204 Z M 28.566 13.204 L 28.566 0.002 L 30.171 0.002 L 30.171 7.52 L 33.996 3.633 L 36.075 3.633 L 32.427 7.19 L 36.441 13.204 L 34.435 13.204 L 31.297 8.327 L 30.166 9.427 L 30.166 13.204 Z M 43.047 13.204 L 43.047 0.002 L 47.571 0.002 C 48.353 -0.012 49.135 0.049 49.906 0.185 C 50.62 0.336 51.285 0.664 51.84 1.139 C 52.543 1.755 53.082 2.536 53.408 3.412 C 53.758 4.426 53.931 5.493 53.919 6.566 C 53.939 7.472 53.816 8.375 53.555 9.243 C 53.369 9.93 53.058 10.577 52.637 11.151 C 51.995 12.114 50.999 12.786 49.865 13.021 C 49.171 13.176 48.46 13.25 47.749 13.241 L 43.047 13.241 Z M 44.797 11.666 L 47.606 11.666 C 48.297 11.695 48.987 11.609 49.649 11.409 C 50.093 11.283 50.495 11.043 50.816 10.712 C 51.269 10.236 51.595 9.654 51.765 9.02 C 52.001 8.198 52.112 7.345 52.094 6.49 C 52.167 5.383 51.926 4.278 51.401 3.301 C 51.038 2.629 50.46 2.099 49.759 1.797 C 49.025 1.584 48.261 1.497 47.498 1.54 L 44.73 1.54 L 44.73 11.661 Z M 56.107 1.872 L 56.107 0.002 L 57.712 0.002 L 57.712 1.872 Z M 56.107 13.204 L 56.107 3.632 L 57.712 3.632 L 57.712 13.202 Z M 59.866 14.009 L 61.435 14.229 C 61.471 14.642 61.668 15.024 61.982 15.292 C 62.469 15.61 63.044 15.764 63.624 15.732 C 64.228 15.768 64.827 15.614 65.339 15.292 C 65.75 14.982 66.045 14.543 66.178 14.045 C 66.274 13.353 66.311 12.653 66.288 11.955 C 65.659 12.763 64.685 13.226 63.661 13.202 C 62.476 13.264 61.338 12.727 60.633 11.772 C 59.906 10.787 59.533 9.585 59.576 8.362 C 59.572 7.492 59.746 6.632 60.087 5.832 C 60.382 5.111 60.875 4.488 61.51 4.036 C 62.162 3.617 62.924 3.4 63.699 3.413 C 64.789 3.387 65.823 3.894 66.471 4.77 L 66.471 3.633 L 67.966 3.633 L 67.966 11.921 C 68.033 12.991 67.884 14.063 67.529 15.075 C 67.225 15.704 66.726 16.219 66.106 16.542 C 65.364 16.929 64.534 17.119 63.697 17.093 C 62.726 17.14 61.766 16.87 60.962 16.324 C 60.604 16.058 60.317 15.707 60.126 15.304 C 59.935 14.9 59.846 14.455 59.866 14.009 Z M 61.216 8.253 C 61.144 9.225 61.401 10.194 61.946 11.003 C 62.401 11.563 63.085 11.886 63.806 11.883 C 64.519 11.885 65.198 11.578 65.667 11.04 C 66.241 10.258 66.513 9.294 66.432 8.327 C 66.503 7.383 66.231 6.446 65.667 5.687 C 65.213 5.126 64.528 4.802 63.806 4.807 C 63.095 4.805 62.423 5.13 61.982 5.687 C 61.412 6.414 61.138 7.331 61.216 8.252 Z M 70.408 1.872 L 70.408 0.002 L 72.013 0.002 L 72.013 1.872 Z M 70.408 13.204 L 70.408 3.632 L 72.013 3.632 L 72.013 13.202 Z M 77.997 11.736 L 78.216 13.166 C 77.822 13.266 77.418 13.317 77.012 13.32 C 76.544 13.344 76.078 13.243 75.662 13.027 C 75.369 12.849 75.13 12.595 74.969 12.293 C 74.798 11.673 74.737 11.027 74.787 10.386 L 74.787 4.873 L 73.619 4.873 L 73.619 3.625 L 74.787 3.625 L 74.787 1.242 L 76.392 0.252 L 76.392 3.589 L 77.997 3.589 L 77.997 4.836 L 76.392 4.836 L 76.392 10.446 C 76.38 10.741 76.404 11.036 76.465 11.326 C 76.531 11.46 76.632 11.574 76.758 11.656 C 76.929 11.736 77.117 11.773 77.305 11.767 C 77.535 11.809 77.772 11.799 77.997 11.737 Z M 85.766 12.029 C 85.269 12.491 84.686 12.852 84.051 13.091 C 83.482 13.316 82.876 13.429 82.264 13.422 C 81.392 13.485 80.53 13.21 79.856 12.653 C 79.305 12.144 78.999 11.423 79.017 10.673 C 79.013 10.223 79.126 9.78 79.345 9.388 C 79.533 9.008 79.823 8.688 80.183 8.465 C 80.54 8.229 80.935 8.055 81.351 7.952 C 81.82 7.84 82.295 7.754 82.773 7.695 C 83.751 7.614 84.717 7.429 85.656 7.145 L 85.656 6.705 C 85.719 6.192 85.544 5.679 85.182 5.311 C 84.663 4.908 84.013 4.712 83.358 4.761 C 82.769 4.72 82.182 4.86 81.675 5.163 C 81.25 5.532 80.966 6.038 80.873 6.593 L 79.305 6.373 C 79.409 5.778 79.646 5.214 79.998 4.723 C 80.376 4.28 80.868 3.95 81.421 3.77 C 82.115 3.539 82.843 3.428 83.574 3.44 C 84.243 3.425 84.909 3.524 85.544 3.733 C 85.978 3.876 86.367 4.128 86.675 4.467 C 86.931 4.787 87.106 5.164 87.186 5.567 C 87.241 6.066 87.265 6.568 87.259 7.07 L 87.259 9.234 C 87.233 10.189 87.27 11.144 87.37 12.094 C 87.448 12.491 87.583 12.874 87.77 13.231 L 86.087 13.231 C 85.921 12.848 85.813 12.443 85.766 12.029 Z M 85.658 8.398 C 84.809 8.708 83.927 8.916 83.031 9.021 C 82.548 9.089 82.072 9.199 81.608 9.351 C 81.35 9.449 81.132 9.629 80.988 9.865 C 80.84 10.094 80.764 10.361 80.769 10.634 C 80.748 11.044 80.924 11.439 81.243 11.697 C 81.647 12.015 82.154 12.172 82.666 12.137 C 83.239 12.143 83.803 12.004 84.308 11.733 C 84.775 11.479 85.146 11.08 85.367 10.597 C 85.568 10.084 85.655 9.534 85.622 8.984 L 85.622 8.396 Z M 89.743 13.204 L 89.743 0.002 L 91.348 0.002 L 91.348 13.204 Z" fill="rgb(255, 255, 255)" height="17.09807497273367px" id="rMfR0dL71" transform="translate(208.742 78.324)" width="91.34800765991213px"/></svg>