<svg width="604" height="145" viewBox="0 0 604 145" fill="none" xmlns="http://www.w3.org/2000/svg">
<path d="M208.625 47.72V57H203.057C199.089 57 195.995 56.04 193.777 54.12C191.558 52.1573 190.449 48.9787 190.449 44.584V30.376H186.097V21.288H190.449V12.584H201.393V21.288H208.561V30.376H201.393V44.712C201.393 45.7787 201.649 46.5467 202.161 47.016C202.673 47.4853 203.526 47.72 204.721 47.72H208.625ZM230.977 57.512C227.478 57.512 224.321 56.7653 221.505 55.272C218.731 53.7787 216.534 51.6453 214.913 48.872C213.334 46.0987 212.545 42.856 212.545 39.144C212.545 35.4747 213.355 32.2533 214.977 29.48C216.598 26.664 218.817 24.5093 221.633 23.016C224.449 21.5227 227.606 20.776 231.105 20.776C234.603 20.776 237.761 21.5227 240.577 23.016C243.393 24.5093 245.611 26.664 247.233 29.48C248.854 32.2533 249.665 35.4747 249.665 39.144C249.665 42.8133 248.833 46.056 247.169 48.872C245.547 51.6453 243.307 53.7787 240.449 55.272C237.633 56.7653 234.475 57.512 230.977 57.512ZM230.977 48.04C233.067 48.04 234.838 47.272 236.289 45.736C237.782 44.2 238.529 42.0027 238.529 39.144C238.529 36.2853 237.803 34.088 236.353 32.552C234.945 31.016 233.195 30.248 231.105 30.248C228.971 30.248 227.201 31.016 225.793 32.552C224.385 34.0453 223.681 36.2427 223.681 39.144C223.681 42.0027 224.363 44.2 225.729 45.736C227.137 47.272 228.886 48.04 230.977 48.04ZM266.415 27.24C267.695 25.2773 269.295 23.7413 271.215 22.632C273.135 21.48 275.268 20.904 277.615 20.904V32.488H274.607C271.876 32.488 269.828 33.0853 268.463 34.28C267.097 35.432 266.415 37.48 266.415 40.424V57H255.471V21.288H266.415V27.24ZM293.79 27.24C295.07 25.2773 296.67 23.7413 298.59 22.632C300.51 21.48 302.643 20.904 304.99 20.904V32.488H301.982C299.251 32.488 297.203 33.0853 295.838 34.28C294.472 35.432 293.79 37.48 293.79 40.424V57H282.846V21.288H293.79V27.24ZM343.885 38.568C343.885 39.592 343.821 40.6587 343.693 41.768H318.925C319.095 43.9867 319.799 45.6933 321.037 46.888C322.317 48.04 323.874 48.616 325.709 48.616C328.439 48.616 330.338 47.464 331.405 45.16H343.053C342.455 47.5067 341.367 49.6187 339.789 51.496C338.253 53.3733 336.311 54.8453 333.965 55.912C331.618 56.9787 328.994 57.512 326.093 57.512C322.594 57.512 319.479 56.7653 316.749 55.272C314.018 53.7787 311.885 51.6453 310.349 48.872C308.813 46.0987 308.045 42.856 308.045 39.144C308.045 35.432 308.791 32.1893 310.285 29.416C311.821 26.6427 313.954 24.5093 316.685 23.016C319.415 21.5227 322.551 20.776 326.093 20.776C329.549 20.776 332.621 21.5013 335.309 22.952C337.997 24.4027 340.087 26.472 341.581 29.16C343.117 31.848 343.885 34.984 343.885 38.568ZM332.685 35.688C332.685 33.8107 332.045 32.3173 330.765 31.208C329.485 30.0987 327.885 29.544 325.965 29.544C324.13 29.544 322.573 30.0773 321.293 31.144C320.055 32.2107 319.287 33.7253 318.989 35.688H332.685ZM371.418 20.904C375.599 20.904 378.927 22.2693 381.402 25C383.919 27.688 385.178 31.4 385.178 36.136V57H374.298V37.608C374.298 35.2187 373.679 33.3627 372.442 32.04C371.205 30.7173 369.541 30.056 367.45 30.056C365.359 30.056 363.695 30.7173 362.458 32.04C361.221 33.3627 360.602 35.2187 360.602 37.608V57H349.658V21.288H360.602V26.024C361.711 24.4453 363.205 23.208 365.082 22.312C366.959 21.3733 369.071 20.904 371.418 20.904ZM426.447 38.568C426.447 39.592 426.383 40.6587 426.255 41.768H401.487C401.658 43.9867 402.362 45.6933 403.599 46.888C404.879 48.04 406.436 48.616 408.271 48.616C411.002 48.616 412.9 47.464 413.967 45.16H425.615C425.018 47.5067 423.93 49.6187 422.351 51.496C420.815 53.3733 418.874 54.8453 416.527 55.912C414.18 56.9787 411.556 57.512 408.655 57.512C405.156 57.512 402.042 56.7653 399.311 55.272C396.58 53.7787 394.447 51.6453 392.911 48.872C391.375 46.0987 390.607 42.856 390.607 39.144C390.607 35.432 391.354 32.1893 392.847 29.416C394.383 26.6427 396.516 24.5093 399.247 23.016C401.978 21.5227 405.114 20.776 408.655 20.776C412.111 20.776 415.183 21.5013 417.871 22.952C420.559 24.4027 422.65 26.472 424.143 29.16C425.679 31.848 426.447 34.984 426.447 38.568ZM415.247 35.688C415.247 33.8107 414.607 32.3173 413.327 31.208C412.047 30.0987 410.447 29.544 408.527 29.544C406.692 29.544 405.135 30.0773 403.855 31.144C402.618 32.2107 401.85 33.7253 401.551 35.688H415.247ZM445.789 20.776C448.306 20.776 450.503 21.288 452.381 22.312C454.301 23.336 455.773 24.68 456.797 26.344V21.288H467.741V56.936C467.741 60.2213 467.079 63.1867 465.757 65.832C464.477 68.52 462.493 70.6533 459.805 72.232C457.159 73.8107 453.853 74.6 449.885 74.6C444.594 74.6 440.306 73.3413 437.021 70.824C433.735 68.3493 431.858 64.9787 431.389 60.712H442.205C442.546 62.0773 443.357 63.144 444.637 63.912C445.917 64.7227 447.495 65.128 449.373 65.128C451.634 65.128 453.426 64.4667 454.749 63.144C456.114 61.864 456.797 59.7947 456.797 56.936V51.88C455.73 53.544 454.258 54.9093 452.381 55.976C450.503 57 448.306 57.512 445.789 57.512C442.845 57.512 440.178 56.7653 437.789 55.272C435.399 53.736 433.501 51.5813 432.093 48.808C430.727 45.992 430.045 42.7493 430.045 39.08C430.045 35.4107 430.727 32.1893 432.093 29.416C433.501 26.6427 435.399 24.5093 437.789 23.016C440.178 21.5227 442.845 20.776 445.789 20.776ZM456.797 39.144C456.797 36.4133 456.029 34.2587 454.493 32.68C452.999 31.1013 451.165 30.312 448.989 30.312C446.813 30.312 444.957 31.1013 443.421 32.68C441.927 34.216 441.181 36.3493 441.181 39.08C441.181 41.8107 441.927 43.9867 443.421 45.608C444.957 47.1867 446.813 47.976 448.989 47.976C451.165 47.976 452.999 47.1867 454.493 45.608C456.029 44.0293 456.797 41.8747 456.797 39.144ZM486.602 27.24C487.882 25.2773 489.482 23.7413 491.402 22.632C493.322 21.48 495.455 20.904 497.802 20.904V32.488H494.794C492.063 32.488 490.015 33.0853 488.65 34.28C487.285 35.432 486.602 37.48 486.602 40.424V57H475.658V21.288H486.602V27.24ZM500.857 39.08C500.857 35.4107 501.54 32.1893 502.905 29.416C504.313 26.6427 506.212 24.5093 508.601 23.016C510.99 21.5227 513.657 20.776 516.601 20.776C519.118 20.776 521.316 21.288 523.193 22.312C525.113 23.336 526.585 24.68 527.609 26.344V21.288H538.553V57H527.609V51.944C526.542 53.608 525.049 54.952 523.129 55.976C521.252 57 519.054 57.512 516.537 57.512C513.636 57.512 510.99 56.7653 508.601 55.272C506.212 53.736 504.313 51.5813 502.905 48.808C501.54 45.992 500.857 42.7493 500.857 39.08ZM527.609 39.144C527.609 36.4133 526.841 34.2587 525.305 32.68C523.812 31.1013 521.977 30.312 519.801 30.312C517.625 30.312 515.769 31.1013 514.233 32.68C512.74 34.216 511.993 36.3493 511.993 39.08C511.993 41.8107 512.74 43.9867 514.233 45.608C515.769 47.1867 517.625 47.976 519.801 47.976C521.977 47.976 523.812 47.1867 525.305 45.608C526.841 44.0293 527.609 41.8747 527.609 39.144ZM180.164 127.512C176.665 127.512 173.508 126.765 170.692 125.272C167.919 123.779 165.721 121.645 164.1 118.872C162.521 116.099 161.732 112.856 161.732 109.144C161.732 105.475 162.543 102.253 164.164 99.48C165.785 96.664 168.004 94.5093 170.82 93.016C173.636 91.5227 176.793 90.776 180.292 90.776C183.791 90.776 186.948 91.5227 189.764 93.016C192.58 94.5093 194.799 96.664 196.42 99.48C198.041 102.253 198.852 105.475 198.852 109.144C198.852 112.813 198.02 116.056 196.356 118.872C194.735 121.645 192.495 123.779 189.636 125.272C186.82 126.765 183.663 127.512 180.164 127.512ZM180.164 118.04C182.255 118.04 184.025 117.272 185.476 115.736C186.969 114.2 187.716 112.003 187.716 109.144C187.716 106.285 186.991 104.088 185.54 102.552C184.132 101.016 182.383 100.248 180.292 100.248C178.159 100.248 176.388 101.016 174.98 102.552C173.572 104.045 172.868 106.243 172.868 109.144C172.868 112.003 173.551 114.2 174.916 115.736C176.324 117.272 178.073 118.04 180.164 118.04ZM215.602 97.24C216.882 95.2773 218.482 93.7413 220.402 92.632C222.322 91.48 224.455 90.904 226.802 90.904V102.488H223.794C221.063 102.488 219.015 103.085 217.65 104.28C216.285 105.432 215.602 107.48 215.602 110.424V127H204.658V91.288H215.602V97.24ZM245.601 90.776C248.118 90.776 250.316 91.288 252.193 92.312C254.113 93.336 255.585 94.68 256.609 96.344V91.288H267.553V126.936C267.553 130.221 266.892 133.187 265.569 135.832C264.289 138.52 262.305 140.653 259.617 142.232C256.972 143.811 253.665 144.6 249.697 144.6C244.406 144.6 240.118 143.341 236.833 140.824C233.548 138.349 231.67 134.979 231.201 130.712H242.017C242.358 132.077 243.169 133.144 244.449 133.912C245.729 134.723 247.308 135.128 249.185 135.128C251.446 135.128 253.238 134.467 254.561 133.144C255.926 131.864 256.609 129.795 256.609 126.936V121.88C255.542 123.544 254.07 124.909 252.193 125.976C250.316 127 248.118 127.512 245.601 127.512C242.657 127.512 239.99 126.765 237.601 125.272C235.212 123.736 233.313 121.581 231.905 118.808C230.54 115.992 229.857 112.749 229.857 109.08C229.857 105.411 230.54 102.189 231.905 99.416C233.313 96.6427 235.212 94.5093 237.601 93.016C239.99 91.5227 242.657 90.776 245.601 90.776ZM256.609 109.144C256.609 106.413 255.841 104.259 254.305 102.68C252.812 101.101 250.977 100.312 248.801 100.312C246.625 100.312 244.769 101.101 243.233 102.68C241.74 104.216 240.993 106.349 240.993 109.08C240.993 111.811 241.74 113.987 243.233 115.608C244.769 117.187 246.625 117.976 248.801 117.976C250.977 117.976 252.812 117.187 254.305 115.608C255.841 114.029 256.609 111.875 256.609 109.144ZM273.295 109.08C273.295 105.411 273.977 102.189 275.343 99.416C276.751 96.6427 278.649 94.5093 281.039 93.016C283.428 91.5227 286.095 90.776 289.039 90.776C291.556 90.776 293.753 91.288 295.631 92.312C297.551 93.336 299.023 94.68 300.047 96.344V91.288H310.991V127H300.047V121.944C298.98 123.608 297.487 124.952 295.567 125.976C293.689 127 291.492 127.512 288.975 127.512C286.073 127.512 283.428 126.765 281.039 125.272C278.649 123.736 276.751 121.581 275.343 118.808C273.977 115.992 273.295 112.749 273.295 109.08ZM300.047 109.144C300.047 106.413 299.279 104.259 297.743 102.68C296.249 101.101 294.415 100.312 292.239 100.312C290.063 100.312 288.207 101.101 286.671 102.68C285.177 104.216 284.431 106.349 284.431 109.08C284.431 111.811 285.177 113.987 286.671 115.608C288.207 117.187 290.063 117.976 292.239 117.976C294.415 117.976 296.249 117.187 297.743 115.608C299.279 114.029 300.047 111.875 300.047 109.144ZM340.668 90.904C344.849 90.904 348.177 92.2693 350.652 95C353.169 97.688 354.428 101.4 354.428 106.136V127H343.548V107.608C343.548 105.219 342.929 103.363 341.692 102.04C340.455 100.717 338.791 100.056 336.7 100.056C334.609 100.056 332.945 100.717 331.708 102.04C330.471 103.363 329.852 105.219 329.852 107.608V127H318.908V91.288H329.852V96.024C330.961 94.4453 332.455 93.208 334.332 92.312C336.209 91.3733 338.321 90.904 340.668 90.904ZM367.537 87.576C365.617 87.576 364.038 87.0213 362.801 85.912C361.606 84.76 361.009 83.352 361.009 81.688C361.009 79.9813 361.606 78.5733 362.801 77.464C364.038 76.312 365.617 75.736 367.537 75.736C369.414 75.736 370.95 76.312 372.145 77.464C373.382 78.5733 374.001 79.9813 374.001 81.688C374.001 83.352 373.382 84.76 372.145 85.912C370.95 87.0213 369.414 87.576 367.537 87.576ZM372.977 91.288V127H362.033V91.288H372.977ZM391.148 117.976H406.636V127H378.924V118.296L393.772 100.312H379.052V91.288H406.316V99.992L391.148 117.976ZM410.482 109.08C410.482 105.411 411.165 102.189 412.53 99.416C413.938 96.6427 415.837 94.5093 418.226 93.016C420.615 91.5227 423.282 90.776 426.226 90.776C428.743 90.776 430.941 91.288 432.818 92.312C434.738 93.336 436.21 94.68 437.234 96.344V91.288H448.178V127H437.234V121.944C436.167 123.608 434.674 124.952 432.754 125.976C430.877 127 428.679 127.512 426.162 127.512C423.261 127.512 420.615 126.765 418.226 125.272C415.837 123.736 413.938 121.581 412.53 118.808C411.165 115.992 410.482 112.749 410.482 109.08ZM437.234 109.144C437.234 106.413 436.466 104.259 434.93 102.68C433.437 101.101 431.602 100.312 429.426 100.312C427.25 100.312 425.394 101.101 423.858 102.68C422.365 104.216 421.618 106.349 421.618 109.08C421.618 111.811 422.365 113.987 423.858 115.608C425.394 117.187 427.25 117.976 429.426 117.976C431.602 117.976 433.437 117.187 434.93 115.608C436.466 114.029 437.234 111.875 437.234 109.144ZM476 117.72V127H470.432C466.464 127 463.37 126.04 461.152 124.12C458.933 122.157 457.824 118.979 457.824 114.584V100.376H453.472V91.288H457.824V82.584H468.768V91.288H475.936V100.376H468.768V114.712C468.768 115.779 469.024 116.547 469.536 117.016C470.048 117.485 470.901 117.72 472.096 117.72H476ZM487.6 87.576C485.68 87.576 484.101 87.0213 482.864 85.912C481.669 84.76 481.072 83.352 481.072 81.688C481.072 79.9813 481.669 78.5733 482.864 77.464C484.101 76.312 485.68 75.736 487.6 75.736C489.477 75.736 491.013 76.312 492.208 77.464C493.445 78.5733 494.064 79.9813 494.064 81.688C494.064 83.352 493.445 84.76 492.208 85.912C491.013 87.0213 489.477 87.576 487.6 87.576ZM493.04 91.288V127H482.096V91.288H493.04ZM517.227 127.512C513.728 127.512 510.571 126.765 507.755 125.272C504.981 123.779 502.784 121.645 501.163 118.872C499.584 116.099 498.795 112.856 498.795 109.144C498.795 105.475 499.605 102.253 501.227 99.48C502.848 96.664 505.067 94.5093 507.883 93.016C510.699 91.5227 513.856 90.776 517.355 90.776C520.853 90.776 524.011 91.5227 526.827 93.016C529.643 94.5093 531.861 96.664 533.483 99.48C535.104 102.253 535.915 105.475 535.915 109.144C535.915 112.813 535.083 116.056 533.419 118.872C531.797 121.645 529.557 123.779 526.699 125.272C523.883 126.765 520.725 127.512 517.227 127.512ZM517.227 118.04C519.317 118.04 521.088 117.272 522.539 115.736C524.032 114.2 524.779 112.003 524.779 109.144C524.779 106.285 524.053 104.088 522.603 102.552C521.195 101.016 519.445 100.248 517.355 100.248C515.221 100.248 513.451 101.016 512.043 102.552C510.635 104.045 509.931 106.243 509.931 109.144C509.931 112.003 510.613 114.2 511.979 115.736C513.387 117.272 515.136 118.04 517.227 118.04ZM563.481 90.904C567.662 90.904 570.99 92.2693 573.465 95C575.982 97.688 577.241 101.4 577.241 106.136V127H566.361V107.608C566.361 105.219 565.742 103.363 564.505 102.04C563.267 100.717 561.603 100.056 559.513 100.056C557.422 100.056 555.758 100.717 554.521 102.04C553.283 103.363 552.665 105.219 552.665 107.608V127H541.721V91.288H552.665V96.024C553.774 94.4453 555.267 93.208 557.145 92.312C559.022 91.3733 561.134 90.904 563.481 90.904Z" fill="white"/>
<path d="M0 42.4384V101.494C0 105.038 2.10361 108.31 5.51493 110.079L62.4043 139.605C65.8156 141.375 70.0181 141.375 73.434 139.605L130.323 110.079C133.735 108.31 135.838 105.034 135.838 101.494V42.4384C135.838 38.8947 133.735 35.6229 130.323 33.8531L73.434 4.32734C70.0227 2.55755 65.8203 2.55755 62.4043 4.32734L5.51493 33.8531C2.10361 35.6229 0 38.8989 0 42.4384Z" fill="#A544FF"/>
<path d="M59.0909 84.3V93H53.8709C50.1509 93 47.2509 92.1 45.1709 90.3C43.0909 88.46 42.0509 85.48 42.0509 81.36V68.04H37.9709V59.52H42.0509V51.36H52.3109V59.52H59.0309V68.04H52.3109V81.48C52.3109 82.48 52.5509 83.2 53.0309 83.64C53.5109 84.08 54.3109 84.3 55.4309 84.3H59.0909ZM80.0459 93.48C76.7659 93.48 73.8059 92.78 71.1659 91.38C68.5659 89.98 66.5059 87.98 64.9859 85.38C63.5059 82.78 62.7659 79.74 62.7659 76.26C62.7659 72.82 63.5259 69.8 65.0459 67.2C66.5659 64.56 68.6459 62.54 71.2859 61.14C73.9259 59.74 76.8859 59.04 80.1659 59.04C83.4459 59.04 86.4059 59.74 89.0459 61.14C91.6859 62.54 93.7659 64.56 95.2859 67.2C96.8059 69.8 97.5659 72.82 97.5659 76.26C97.5659 79.7 96.7859 82.74 95.2259 85.38C93.7059 87.98 91.6059 89.98 88.9259 91.38C86.2859 92.78 83.3259 93.48 80.0459 93.48ZM80.0459 84.6C82.0059 84.6 83.6659 83.88 85.0259 82.44C86.4259 81 87.1259 78.94 87.1259 76.26C87.1259 73.58 86.4459 71.52 85.0859 70.08C83.7659 68.64 82.1259 67.92 80.1659 67.92C78.1659 67.92 76.5059 68.64 75.1859 70.08C73.8659 71.48 73.2059 73.54 73.2059 76.26C73.2059 78.94 73.8459 81 75.1259 82.44C76.4459 83.88 78.0859 84.6 80.0459 84.6ZM93.0059 48V55.08H69.0059V48H93.0059Z" fill="white"/>
</svg>
