<svg width="1200" height="800" viewBox="0 0 1200 800" fill="none" xmlns="http://www.w3.org/2000/svg">
  <defs>
    <linearGradient id="bg" x1="0" y1="0" x2="1" y2="1">
      <stop offset="0%" stop-color="#0c111b" />
      <stop offset="60%" stop-color="#111a26" />
      <stop offset="100%" stop-color="#0a0f17" />
    </linearGradient>
    <linearGradient id="accent" x1="0" y1="0" x2="1" y2="0">
      <stop offset="0%" stop-color="#7cf4d8" stop-opacity="0.6" />
      <stop offset="100%" stop-color="#a6ff6a" stop-opacity="0.6" />
    </linearGradient>
  </defs>
  <rect width="1200" height="800" rx="48" fill="url(#bg)" />
  <rect x="80" y="90" width="1040" height="620" rx="28" fill="rgba(9,11,17,0.7)" stroke="rgba(255,255,255,0.12)" stroke-width="2" />
  <rect x="120" y="130" width="200" height="28" rx="14" fill="rgba(124,244,216,0.16)" />
  <text x="130" y="150" fill="rgba(124,244,216,0.7)" font-family="JetBrains Mono, monospace" font-size="22" letter-spacing="4">MOCKUP</text>

  <rect x="140" y="190" width="380" height="16" rx="8" fill="rgba(255,255,255,0.18)" />
  <rect x="140" y="220" width="240" height="12" rx="6" fill="rgba(255,255,255,0.12)" />

  <rect x="140" y="280" width="920" height="220" rx="18" fill="rgba(255,255,255,0.05)" stroke="rgba(255,255,255,0.08)" stroke-width="1" />
  <rect x="170" y="320" width="300" height="120" rx="12" fill="rgba(124,244,216,0.08)" />
  <rect x="490" y="320" width="540" height="18" rx="9" fill="rgba(255,255,255,0.12)" />
  <rect x="490" y="350" width="420" height="14" rx="7" fill="rgba(255,255,255,0.08)" />
  <rect x="490" y="380" width="360" height="14" rx="7" fill="rgba(255,255,255,0.08)" />
  <rect x="490" y="410" width="260" height="14" rx="7" fill="rgba(255,255,255,0.08)" />

  <rect x="140" y="540" width="320" height="120" rx="16" fill="rgba(166,255,106,0.08)" />
  <rect x="480" y="540" width="320" height="120" rx="16" fill="rgba(255,255,255,0.05)" />
  <rect x="820" y="540" width="240" height="120" rx="16" fill="rgba(255,255,255,0.05)" />

  <rect x="140" y="690" width="920" height="4" rx="2" fill="url(#accent)" />
</svg>
